<svg width="28" height="26" viewBox="0 0 28 26" fill="none" xmlns="http://www.w3.org/2000/svg">
<path d="M27.2249 7.1875L14.5937 0.371252C14.2224 0.171252 13.7762 0.171252 13.4062 0.371252L0.781197 7.1875C0.173697 7.5175 -0.0525534 8.275 0.274947 8.8825C0.499947 9.30125 0.931197 9.53875 1.37495 9.53875C1.57495 9.53875 1.77995 9.49125 1.9687 9.38875L2.8862 8.89375L4.8737 22.9563C5.1437 24.4738 6.5112 25.5338 8.1987 25.5338H19.8012C21.4887 25.5338 22.8562 24.4738 23.1287 22.9238L25.1137 8.8925L26.0349 9.39C26.6412 9.71875 27.3999 9.4925 27.7274 8.885C28.0562 8.2775 27.8274 7.51875 27.2224 7.19125L27.2249 7.1875ZM13.9999 17.2938C11.7562 17.2938 9.93745 15.475 9.93745 13.2313C9.93745 10.9875 11.7562 9.16875 13.9999 9.16875C16.2437 9.16875 18.0624 10.9875 18.0624 13.2313C18.0624 15.475 16.2437 17.2938 13.9999 17.2938Z" fill="#1DA1F2"/>
</svg>
